<svg width="19" height="19" viewBox="0 0 19 19" fill="none" xmlns="http://www.w3.org/2000/svg">
<path d="M13.6557 19C13.0424 19 12.4343 18.8916 11.8396 18.6755C9.21988 17.7239 6.7882 16.1739 4.80739 14.1931C2.82657 12.2123 1.27657 9.78059 0.324943 7.16085C0.0191373 6.31895 -0.071109 5.44988 0.0568018 4.5777C0.176623 3.76073 0.493079 2.96763 0.971993 2.2841C1.45302 1.59757 2.09432 1.02655 2.82653 0.6328C3.60735 0.212925 4.45961 0 5.3597 0C5.63964 0 5.88158 0.195596 5.94025 0.469303L6.87218 4.81831C6.91437 5.01524 6.85385 5.22015 6.71146 5.36257L5.11905 6.95494C6.62125 9.9416 9.05879 12.3791 12.0455 13.8813L13.6378 12.2889C13.7802 12.1466 13.9852 12.0861 14.1821 12.1282L18.5311 13.0601C18.8048 13.1188 19.0004 13.3608 19.0004 13.6407C19.0004 14.5408 18.7875 15.3931 18.3676 16.1739C17.9738 16.9061 17.4028 17.5474 16.7163 18.0284C16.0328 18.5074 15.2397 18.8238 14.4227 18.9436C14.1667 18.9812 13.9107 19 13.6557 19ZM4.88531 1.21343C3.69805 1.34449 2.64426 1.96679 1.94448 2.96555C1.15757 4.08862 0.974071 5.46996 1.44104 6.75545C3.2706 11.7919 7.20852 15.7299 12.245 17.5594C13.5305 18.0264 14.9118 17.8429 16.0349 17.056C17.0337 16.3562 17.656 15.3024 17.787 14.1152L14.2491 13.357L12.5861 15.0201C12.4092 15.197 12.1403 15.2441 11.9138 15.1376C8.38154 13.4782 5.52231 10.6189 3.86284 7.08664C3.75645 6.86017 3.80343 6.59128 3.9804 6.41435L5.64342 4.75133L4.88531 1.21343Z" fill="white"/>
</svg>
