<svg width="166" height="42" viewBox="0 0 166 42" fill="none" xmlns="http://www.w3.org/2000/svg">
<path d="M3.69377 10.9898L0.228746 6.39571H0.0681152C0.228746 7.56676 0.297587 8.53512 0.297587 10.5169V18.9394C0.297587 20.7185 0.251693 21.7094 0.0681152 23.0606H5.82786C5.66723 21.7544 5.59839 20.7185 5.59839 18.9619V14.7056C5.71312 13.5121 5.8967 12.9265 6.42449 12.2735C7.22764 11.2826 8.3291 10.7871 9.72888 10.7871C10.6009 10.7871 11.2893 10.9223 12.5743 11.3051L13.9053 6.39571C13.6987 6.35067 13.5152 6.30563 13.3316 6.28311C13.0792 6.28311 12.8497 6.26059 12.5973 6.26059C8.74215 6.26059 6.74575 7.40911 3.69377 10.9898Z" fill="#CC312B"/>
<path d="M18.5185 7.22894C16.2467 8.76031 14.8928 11.3952 14.8928 14.7281C14.8928 17.4305 15.7878 19.7501 17.417 21.3941C19.0004 22.948 21.1574 23.7137 23.8881 23.7137C26.6418 23.7137 28.8677 22.9255 30.451 21.3941C31.2312 20.6284 31.6443 19.9978 32.2868 18.5791L27.4449 17.2504C27.2155 17.971 27.0319 18.2638 26.6188 18.6466C25.8845 19.2997 24.9207 19.66 23.7963 19.66C21.5934 19.66 20.2854 18.489 20.01 16.2595H32.5392C32.5163 15.9893 32.5163 15.8316 32.5163 15.719C32.4245 14.1651 32.3327 13.0166 32.1032 12.1383C31.9426 11.4627 31.7131 10.8547 31.4607 10.2917C28.7759 10.1791 26.2058 9.63859 21.5934 8.12975C20.4001 7.74691 19.4134 7.45414 18.5185 7.22894ZM27.2614 12.4986H20.1018C20.5837 10.697 21.777 9.81875 23.7504 9.81875C25.678 9.81875 26.8713 10.7421 27.2614 12.4986Z" fill="#CC312B"/>
<path d="M34.8569 11.1024C34.8569 12.0257 35.1093 12.9716 35.5453 13.6922C36.0731 14.503 36.991 15.1335 38.3219 15.629C39.2398 15.9217 40.3183 16.192 42.4524 16.6198C43.9899 16.9126 44.357 17.0252 44.7471 17.2504C45.1372 17.4756 45.3667 17.8134 45.3667 18.2413C45.3667 19.0971 44.4259 19.5475 42.7507 19.5475C40.892 19.5475 39.9282 18.9169 39.6528 17.4981L34.1455 18.1062C34.4209 19.4123 34.6962 20.0654 35.2699 20.8311C36.6009 22.6327 39.0792 23.556 42.5901 23.556C45.5732 23.556 47.845 22.8804 49.1989 21.5517C50.1168 20.6735 50.6216 19.3673 50.6216 17.926C50.6216 15.9668 49.7496 14.6156 47.9368 13.7373C46.973 13.2418 46.101 12.9941 43.3703 12.4311C40.6166 11.8231 40.02 11.5528 40.02 10.8097C40.02 10.089 40.9149 9.63861 42.3606 9.63861C43.8751 9.63861 44.5635 10.1341 44.7012 11.2601L50.0709 10.6971C49.6349 9.16569 49.1759 8.37749 48.258 7.58928C47.2943 6.73352 45.9633 6.19304 44.2882 5.96783C41.4427 8.37749 38.3678 9.77373 34.9487 10.2016C34.9028 10.4719 34.8569 10.7646 34.8569 11.1024Z" fill="#CC312B"/>
<path d="M58.4465 0.0450439H52.8015V4.1437H58.4465V0.0450439Z" fill="#CC312B"/>
<path d="M58.5383 6.10295H52.7097C52.8703 7.34156 52.9392 8.44504 52.9392 10.2241V18.6467C52.9392 20.4032 52.8933 21.4391 52.7097 22.7678H58.5383C58.4006 21.5968 58.3088 20.1105 58.3088 18.6467V10.2241C58.3088 8.33244 58.3777 7.22896 58.5383 6.10295Z" fill="#CC312B"/>
<path d="M79.971 0.0450439H74.2571C74.4177 1.23861 74.4866 2.43217 74.4866 4.34638V6.62091C74.4866 7.00376 74.4866 7.25148 74.5095 7.65684C72.6738 6.21555 71.0674 5.63003 68.7957 5.63003C66.501 5.63003 64.5505 6.37319 63.1507 7.76944C61.5903 9.32333 60.7642 11.5979 60.7642 14.4354C60.7642 19.9528 63.8161 23.2858 68.8875 23.2858C71.2281 23.2858 72.6508 22.7903 74.5095 21.3265C74.4866 21.5743 74.4866 21.7544 74.4866 21.9346V22.8129H79.971C79.8103 21.4842 79.7415 20.3582 79.7415 18.5115V4.32386C79.7644 2.49974 79.8103 1.19357 79.971 0.0450439ZM70.1496 19.0971C69.1169 19.0971 68.1073 18.7142 67.4418 18.0611C66.6157 17.2729 66.1568 16.0118 66.1568 14.4579C66.1568 11.5979 67.6942 9.81877 70.1037 9.81877C72.6279 9.81877 74.4177 11.733 74.4177 14.3903C74.4407 17.0702 72.6279 19.0971 70.1496 19.0971Z" fill="#CC312B"/>
<path d="M99.8202 15.4263C99.7284 13.8724 99.6367 12.7239 99.4072 11.8456C98.4434 7.76944 95.3914 5.44987 91.0544 5.44987C85.7306 5.44987 82.1968 9.03057 82.1968 14.4354C82.1968 17.1378 83.0917 19.4574 84.721 21.1013C86.3043 22.6552 88.4614 23.4209 91.1921 23.4209C93.9457 23.4209 96.1716 22.6327 97.755 21.1013C98.5352 20.3357 98.9482 19.7051 99.5908 18.2863L94.7489 16.9576C94.5194 17.6783 94.3358 17.9711 93.9228 18.3539C93.1885 19.007 92.2247 19.3673 91.1003 19.3673C88.8974 19.3673 87.5894 18.1963 87.314 15.9668H99.8432C99.8202 15.6965 99.8202 15.5389 99.8202 15.4263ZM87.3828 12.2059C87.8647 10.4043 89.058 9.52601 91.0315 9.52601C92.959 9.52601 94.1523 10.4493 94.5424 12.2059H87.3828Z" fill="#CC312B"/>
<path d="M113.818 22.7903H119.601C119.463 21.6418 119.371 20.2681 119.371 18.6917V11.8231C119.371 9.66112 118.889 8.33244 117.788 7.22895C116.755 6.21555 115.218 5.69759 113.313 5.69759C111.018 5.69759 109.32 6.37319 107.576 8.01716C107.576 7.837 107.599 7.40911 107.599 7.25147V6.10295H102.046C102.207 7.20643 102.276 8.35496 102.276 10.2241V18.6466C102.276 20.3357 102.23 21.4842 102.046 22.7678H107.806C107.645 21.3491 107.576 20.2005 107.576 18.6466V13.1292C108.77 11.215 110.169 10.2692 111.73 10.2692C112.556 10.2692 113.198 10.5394 113.566 11.0349C113.91 11.5078 114.002 11.9582 114.002 13.0617V18.6692C114.048 20.3131 113.979 21.4617 113.818 22.7903Z" fill="#CC312B"/>
<path d="M138.555 17.7459C138.578 17.6783 138.601 17.6107 138.624 17.5206L133.507 16.7324C133.392 17.363 133.254 17.6333 133.002 17.9936C132.451 18.7593 131.441 19.1871 130.363 19.1871C128.137 19.1871 126.714 17.2729 126.714 14.3228C126.714 11.3276 128.045 9.57105 130.317 9.57105C131.327 9.57105 132.107 9.90885 132.658 10.5169C133.025 10.9223 133.185 11.3051 133.438 12.1383L138.44 11.1249C137.522 7.4992 134.539 5.40483 130.248 5.40483C124.81 5.40483 121.299 8.89545 121.299 14.3678C121.299 17.0477 122.194 19.4574 123.8 21.0113C125.108 22.3174 126.967 23.1056 129.147 23.3083C132.153 20.2681 135.136 18.489 138.555 17.7459Z" fill="#CC312B"/>
<path d="M146.518 0H140.873V4.09866H146.518V0Z" fill="#CC312B"/>
<path d="M146.403 17.6332V10.2016C146.403 8.2874 146.449 7.18391 146.633 6.08043H140.804C140.965 7.31903 141.033 8.42252 141.033 10.2016V17.3855C141.584 17.3405 142.158 17.318 142.754 17.318C143.948 17.318 145.095 17.408 146.403 17.6332Z" fill="#CC312B"/>
<path d="M162.535 21.4842C163.866 21.4842 164.99 21.3491 166 21.0113C165.977 20.4032 165.954 19.7276 165.954 18.8719V11.4853C165.954 9.03057 165.174 7.52172 163.384 6.55336C162.305 5.99036 160.286 5.60751 158.221 5.60751C155.513 5.60751 153.448 6.12548 151.956 7.1614C150.786 7.97213 150.166 8.85041 149.616 10.4719L154.939 11.3276C155.352 9.99894 156.293 9.41341 158.083 9.41341C159.919 9.41341 160.722 10.0215 160.722 11.3276V11.9357C158.726 11.9807 157.877 12.0257 156.798 12.1383C154.297 12.3635 152.415 12.9265 151.015 13.9174C149.684 14.8182 148.973 16.192 148.973 17.9035C148.973 17.9936 148.973 18.1062 148.996 18.1963C150.304 18.5341 151.796 18.9619 153.563 19.5024C157.923 20.8987 160.401 21.4842 162.535 21.4842ZM155.926 15.9893C157.073 15.629 158.267 15.4938 160.745 15.4488V16.2145C160.745 17.0252 160.378 17.7684 159.735 18.3089C158.978 18.9394 157.739 19.3448 156.592 19.3448C155.146 19.3448 154.297 18.7593 154.297 17.7909C154.297 17.0027 154.916 16.3271 155.926 15.9893Z" fill="#CC312B"/>
<path d="M0 34.3206H1.51452V37.0906L3.85513 35.1089V34.3206H5.27786V39.748H3.78629V36.9555L1.37683 38.9148V39.748H0V34.3206Z" fill="#CC312B"/>
<path d="M7.77918 39.5453C7.34318 39.3201 7.02192 39.0048 6.7695 38.5995C6.54003 38.1716 6.40234 37.6761 6.40234 37.1131C6.40234 36.5501 6.54003 36.0547 6.79245 35.6043C7.04487 35.1539 7.41202 34.8161 7.84802 34.5684C8.30696 34.3206 8.83475 34.1855 9.40843 34.1855C10.028 34.1855 10.6017 34.3206 11.1524 34.6134L10.7853 35.7394C10.5787 35.6268 10.3722 35.5367 10.1427 35.4692C9.91326 35.4016 9.68379 35.3791 9.45432 35.3791C8.94948 35.3791 8.55938 35.5367 8.30696 35.8295C8.03159 36.1448 7.89391 36.5501 7.89391 37.0681C7.89391 37.3609 7.96275 37.6311 8.07749 37.8788C8.19223 38.1265 8.3758 38.3292 8.60527 38.4643C8.83475 38.5995 9.11011 38.6895 9.43137 38.6895C9.70674 38.6895 9.95916 38.6445 10.1886 38.5544C10.4181 38.4643 10.6705 38.3067 10.9 38.1265L11.4737 38.9598C11.1983 39.23 10.877 39.4552 10.4869 39.6129C10.0968 39.793 9.68379 39.8606 9.22485 39.8606C8.67412 39.8831 8.19223 39.7705 7.77918 39.5453Z" fill="#CC312B"/>
<path d="M16.2236 35.4692H14.0895V39.748H12.5979V34.3206H17.7151V39.748H16.2236V35.4692Z" fill="#CC312B"/>
<path d="M23.888 38.0365V39.7705H22.993L22.7177 38.9147C22.4653 39.1174 22.2128 39.2976 22.0063 39.4327C21.7998 39.5678 21.5474 39.6804 21.295 39.7705C21.0425 39.8606 20.7672 39.9056 20.4689 39.9056C20.1705 39.9056 19.8952 39.8606 19.6428 39.748C19.3903 39.6354 19.2068 39.4777 19.0691 39.2751C18.9314 39.0724 18.8625 38.8247 18.8625 38.5769C18.8625 37.9914 19.1609 37.496 19.7345 37.0906C20.3312 36.6853 21.2032 36.415 22.3505 36.2799C22.3276 36.0097 22.2358 35.807 22.0981 35.6718C21.9604 35.5367 21.7539 35.4692 21.4556 35.4692C21.1343 35.4692 20.8131 35.5142 20.5147 35.6268C20.2164 35.7394 19.8952 35.8745 19.551 36.0772L19.1609 35.0188C19.5051 34.7936 19.9181 34.6134 20.3771 34.4558C20.859 34.2981 21.3179 34.208 21.7768 34.208C22.4882 34.208 23.016 34.4107 23.3143 34.7936C23.6356 35.1764 23.7732 35.7169 23.7732 36.415L23.888 38.0365ZM20.5147 38.5769C20.6065 38.667 20.7442 38.7121 20.9507 38.7121C21.2032 38.7121 21.4326 38.6445 21.6621 38.5319C21.8916 38.4193 22.121 38.2617 22.3735 38.059V37.1131C21.8457 37.1807 21.4556 37.2708 21.1573 37.3609C20.859 37.4509 20.6524 37.5861 20.5606 37.6987C20.4459 37.8338 20.4 37.9689 20.4 38.1491C20.3771 38.3517 20.423 38.4869 20.5147 38.5769Z" fill="#CC312B"/>
<path d="M28.9594 37.5635H26.8483V39.748H25.3337V34.3206H26.8483V36.4375H28.9594V34.3206H30.4739V39.748H28.9594V37.5635Z" fill="#CC312B"/>
<path d="M32.9523 39.5453C32.5163 39.3201 32.195 39.0048 31.9426 38.5995C31.7131 38.1716 31.5754 37.6761 31.5754 37.1131C31.5754 36.5501 31.7131 36.0547 31.9655 35.6043C32.218 35.1539 32.5622 34.8161 33.0211 34.5684C33.4801 34.3206 34.0078 34.1855 34.5815 34.1855C35.2011 34.1855 35.7748 34.3206 36.3255 34.6134L35.9584 35.7394C35.7518 35.6268 35.5453 35.5367 35.3158 35.4692C35.0864 35.4016 34.8569 35.3791 34.6274 35.3791C34.1226 35.3791 33.7325 35.5367 33.4801 35.8295C33.2047 36.1448 33.067 36.5501 33.067 37.0681C33.067 37.3609 33.1359 37.6311 33.2506 37.8788C33.3653 38.1265 33.5489 38.3292 33.7784 38.4643C34.0078 38.5995 34.2832 38.6895 34.6045 38.6895C34.8798 38.6895 35.1323 38.6445 35.3617 38.5544C35.5912 38.4643 35.8436 38.3067 36.0731 38.1265L36.6468 38.9598C36.3714 39.23 36.0502 39.4552 35.66 39.6129C35.2699 39.793 34.8569 39.8606 34.3979 39.8606C33.8472 39.8831 33.3653 39.7705 32.9523 39.5453Z" fill="#CC312B"/>
<path d="M41.0295 36.8429L43.3472 39.748H41.5114L39.9051 37.6761H39.2855V39.748H37.771V34.3206H39.2855V36.4375H39.7445L41.3508 34.3206H43.0259L41.0295 36.8429Z" fill="#CC312B"/>
<path d="M48.5103 38.0365V39.7705H47.6154L47.34 38.9147C47.0876 39.1174 46.8352 39.2976 46.6286 39.4327C46.4221 39.5678 46.1697 39.6804 45.9173 39.7705C45.6648 39.8606 45.3895 39.9056 45.0912 39.9056C44.7929 39.9056 44.5175 39.8606 44.2651 39.748C44.0356 39.6354 43.8291 39.4777 43.6914 39.2751C43.5537 39.0724 43.4849 38.8247 43.4849 38.5769C43.4849 37.9914 43.7832 37.496 44.3569 37.0906C44.9535 36.6853 45.8255 36.415 46.9728 36.2799C46.9499 36.0097 46.8581 35.807 46.7204 35.6718C46.5827 35.5367 46.3762 35.4692 46.0779 35.4692C45.7566 35.4692 45.4354 35.5142 45.1371 35.6268C44.8387 35.7394 44.5175 35.8745 44.1733 36.0772L43.7832 35.0188C44.1274 34.7936 44.5404 34.6134 44.9994 34.4558C45.4813 34.2981 45.9402 34.208 46.3992 34.208C47.1105 34.208 47.6383 34.4107 47.9366 34.7936C48.2579 35.1764 48.3956 35.7169 48.3956 36.415L48.5103 38.0365ZM45.1371 38.5769C45.2288 38.667 45.3665 38.7121 45.5731 38.7121C45.8255 38.7121 46.0549 38.6445 46.2844 38.5319C46.5139 38.4193 46.7434 38.2617 46.9958 38.059V37.1131C46.468 37.1807 46.0779 37.2708 45.7796 37.3609C45.4813 37.4509 45.2747 37.5861 45.183 37.6987C45.0682 37.8338 45.0223 37.9689 45.0223 38.1491C45.0223 38.3517 45.0682 38.4869 45.1371 38.5769Z" fill="#CC312B"/>
<path d="M54.293 34.3206V39.748H52.7785V35.4466H52.1819C51.9754 35.4466 51.7918 35.4692 51.6312 35.5367C51.4705 35.6043 51.3558 35.6944 51.264 35.807C51.1722 35.9196 51.1263 36.0547 51.1263 36.2123C51.1263 36.37 51.1722 36.5051 51.264 36.6402C51.3558 36.7753 51.4705 36.8654 51.6312 36.933C51.7918 37.0005 51.9754 37.0456 52.1819 37.0456H52.7326L52.4573 37.6311L52.4114 37.6986L52.2048 38.1716H52.136L51.2181 39.7255H49.4971L50.7133 37.9239C50.3691 37.7662 50.0937 37.541 49.9101 37.2482C49.7265 36.9555 49.6348 36.6402 49.6348 36.2574C49.6348 35.8745 49.7495 35.5367 49.956 35.244C50.1625 34.9512 50.4609 34.7035 50.851 34.5458C51.2411 34.3882 51.7 34.2981 52.2507 34.2981H54.293V34.3206Z" fill="#CC312B"/>
<path d="M62.8983 34.5008C63.2425 34.7035 63.4949 34.9962 63.7014 35.4016C63.908 35.807 63.9998 36.2799 63.9998 36.8429C63.9998 37.496 63.885 38.059 63.6785 38.5094C63.449 38.9598 63.1507 39.3201 62.7606 39.5453C62.3705 39.7705 61.8886 39.8831 61.3608 39.8831C60.9478 39.8831 60.5347 39.793 60.1217 39.6129V42H58.6072V36.0547V34.3206H59.5021L59.7775 35.1989C60.0758 34.9062 60.42 34.6584 60.7872 34.4783C61.1543 34.2981 61.4756 34.1855 61.7739 34.1855C62.2099 34.1855 62.577 34.2981 62.8983 34.5008ZM62.1869 38.2166C62.4164 37.9013 62.5311 37.4735 62.5311 36.9555C62.5311 36.4375 62.4394 36.0547 62.2328 35.807C62.0263 35.5367 61.7509 35.4241 61.3838 35.4241C60.9707 35.4241 60.5806 35.6043 60.1446 35.9421V38.3517C60.2823 38.4643 60.443 38.5319 60.6265 38.5995C60.8101 38.667 60.9937 38.7121 61.2002 38.7121C61.6133 38.6895 61.9345 38.5319 62.1869 38.2166Z" fill="#CC312B"/>
<path d="M68.9105 34.5233C69.2777 34.7485 69.553 35.0638 69.7596 35.4917C69.9661 35.9196 70.0579 36.415 70.0579 37.0231C70.0579 37.1357 70.0579 37.2032 70.0579 37.2708H66.2028C66.2257 37.7437 66.3863 38.104 66.6617 38.3518C66.9371 38.5995 67.2813 38.7346 67.7173 38.7346C68.2909 38.7346 68.8417 38.4869 69.3465 38.014L69.9431 38.8247C69.6678 39.1625 69.3465 39.4102 68.9564 39.6129C68.5663 39.8156 68.0844 39.9056 67.5337 39.9056C67.0059 39.9056 66.524 39.793 66.111 39.5678C65.6979 39.3426 65.3767 39.0274 65.1472 38.5995C64.9177 38.1716 64.803 37.6762 64.803 37.0681C64.803 36.5051 64.9177 36.0097 65.1701 35.5818C65.3996 35.1539 65.7438 34.7936 66.1569 34.5684C66.5929 34.3207 67.0518 34.2081 67.6025 34.2081C68.1074 34.1855 68.5434 34.2981 68.9105 34.5233ZM68.7269 36.3475C68.681 35.6719 68.3368 35.3341 67.6255 35.3341C67.3042 35.3341 67.0289 35.4241 66.7994 35.6043C66.5699 35.7845 66.3863 36.0322 66.2945 36.3475H68.7269Z" fill="#CC312B"/>
<path d="M74.5326 37.3608C74.785 37.586 74.8998 37.8788 74.8998 38.2391C74.8998 38.5769 74.808 38.8472 74.6015 39.0949C74.3949 39.3426 74.1196 39.5228 73.7295 39.6579C73.3623 39.793 72.9034 39.8606 72.3985 39.8606C71.7789 39.8606 71.1823 39.748 70.5857 39.5228L70.884 38.4643C71.0905 38.5319 71.343 38.5995 71.6183 38.6445C71.8937 38.6895 72.1691 38.7121 72.4215 38.7121C72.7198 38.7121 72.9722 38.6445 73.1328 38.5319C73.3164 38.4193 73.3853 38.2617 73.3853 38.059C73.3853 37.8563 73.2935 37.6987 73.0869 37.5635C72.8804 37.4509 72.5592 37.3834 72.1232 37.3834H71.7331V36.5501H72.0314C72.3297 36.5501 72.5821 36.4826 72.7886 36.37C72.9952 36.2574 73.1099 36.0997 73.1099 35.8745C73.1099 35.7169 73.041 35.5818 72.9034 35.4917C72.7657 35.4016 72.605 35.334 72.3756 35.334C71.9855 35.334 71.5265 35.4241 70.9987 35.6268L70.6775 34.5233C70.9987 34.4107 71.2971 34.3432 71.5724 34.2756C71.8478 34.2306 72.1232 34.1855 72.3985 34.1855C73.0869 34.1855 73.6377 34.3206 74.0048 34.5684C74.3949 34.8161 74.5785 35.1989 74.5785 35.6718C74.5785 35.9646 74.4867 36.2123 74.2802 36.415C74.0737 36.6177 73.7983 36.7753 73.477 36.8429C73.936 36.978 74.2802 37.1356 74.5326 37.3608Z" fill="#CC312B"/>
<path d="M76.0239 34.3206H77.5384V37.0906L79.902 35.1089V34.3206H81.3247V39.748H79.8102V36.9555L77.4008 38.9148V39.748H76.0239V34.3206Z" fill="#CC312B"/>
<path d="M88.8055 41.1442H87.4746V39.8156H86.5796H84.3997H83.4818V41.1442H82.1509V38.667H82.7016C82.9081 38.5094 83.0688 38.3292 83.1835 38.1491C83.2982 37.9689 83.3671 37.7212 83.413 37.4059C83.4589 37.0906 83.4818 36.6627 83.4818 36.1223V34.3657H88.14V38.667H88.8055V41.1442ZM86.6255 35.5367H84.9504C84.9504 36.1223 84.9504 36.5727 84.9045 36.933C84.8816 37.2708 84.8127 37.6086 84.698 37.9239C84.5833 38.2391 84.4226 38.4869 84.1702 38.6896H86.6026V35.5367H86.6255Z" fill="#CC312B"/>
<path d="M93.3034 34.5233C93.6705 34.7485 93.9459 35.0638 94.1524 35.4917C94.3589 35.9196 94.4507 36.415 94.4507 37.0231C94.4507 37.1357 94.4507 37.2032 94.4507 37.2708H90.5956C90.6185 37.7437 90.7792 38.104 91.0545 38.3518C91.3299 38.5995 91.6741 38.7346 92.1101 38.7346C92.6838 38.7346 93.2345 38.4869 93.7394 38.014L94.336 38.8247C94.0606 39.1625 93.7394 39.4102 93.3493 39.6129C92.9591 39.8156 92.4773 39.9056 91.9495 39.9056C91.4217 39.9056 90.9398 39.793 90.5267 39.5678C90.1137 39.3426 89.7924 39.0274 89.563 38.5995C89.3335 38.1716 89.2188 37.6762 89.2188 37.0681C89.2188 36.5051 89.3335 36.0097 89.5859 35.5818C89.8154 35.1539 90.1596 34.7936 90.5726 34.5684C91.0086 34.3207 91.4676 34.2081 92.0183 34.2081C92.5002 34.1855 92.9362 34.2981 93.3034 34.5233ZM93.1198 36.3475C93.0739 35.6719 92.7297 35.3341 92.0183 35.3341C91.6971 35.3341 91.4217 35.4241 91.1922 35.6043C90.9627 35.7845 90.7792 36.0322 90.6874 36.3475H93.1198Z" fill="#CC312B"/>
<path d="M99.2006 37.5635H97.0895V39.748H95.575V34.3206H97.0895V36.4375H99.2006V34.3206H100.715V39.748H99.2006V37.5635Z" fill="#CC312B"/>
<path d="M107.37 38.5995H108.173V41.0767H106.842V39.748H102.23V34.3206H103.744V38.622H105.855V34.3206H107.37V38.5995Z" fill="#CC312B"/>
<path d="M108.976 34.3206H110.491V37.0906L112.854 35.1089V34.3206H114.277V39.748H112.763V36.9555L110.353 38.9148V39.748H108.976V34.3206Z" fill="#CC312B"/>
<path d="M120.106 34.3206V39.748H118.591V35.4466H117.994C117.788 35.4466 117.604 35.4692 117.444 35.5367C117.283 35.6043 117.168 35.6944 117.077 35.807C116.985 35.9196 116.939 36.0547 116.939 36.2123C116.939 36.37 116.985 36.5051 117.077 36.6402C117.168 36.7753 117.283 36.8654 117.444 36.933C117.604 37.0005 117.788 37.0456 117.994 37.0456H118.545L118.27 37.6311L118.224 37.6986L118.017 38.1716H117.948L117.031 39.7255H115.31L116.526 37.9239C116.182 37.7662 115.906 37.541 115.723 37.2482C115.539 36.9555 115.447 36.6402 115.447 36.2574C115.447 35.8745 115.562 35.5367 115.769 35.244C115.975 34.9512 116.273 34.7035 116.663 34.5458C117.054 34.3882 117.513 34.2981 118.063 34.2981H120.106V34.3206Z" fill="#CC312B"/>
</svg>
